<svg width="21" height="17" viewBox="0 0 21 17" fill="none" xmlns="http://www.w3.org/2000/svg">
<g clip-path="url(#clip0_8699_2762)">
<path d="M1.4313 16.3752H4.77232V8.26089L0 4.68115V14.9429C0 15.7334 0.640866 16.3752 1.4313 16.3752Z" fill="#4285F4"/>
<path d="M16.2275 16.3752H19.5686C20.359 16.3752 21.0009 15.7344 21.0009 14.9429V4.68115L16.2275 8.26089V16.3752Z" fill="#34A853"/>
<path d="M16.2275 2.0568V8.26043L21.0009 4.68069V2.77196C20.9999 1.58631 20.0381 0.624512 18.8524 0.624512C18.3879 0.624512 17.9362 0.775071 17.5638 1.0544L16.2275 2.0568Z" fill="#FBBC04"/>
<path d="M4.77295 8.26075V2.05713L10.5001 6.35202L16.2273 2.05713V8.26075L10.5001 12.5556L4.77295 8.26075Z" fill="#EA4335"/>
<path d="M0 2.77219V4.68092L4.77331 8.26065V2.05703L3.4371 1.05463C2.48719 0.342444 1.14108 0.534604 0.429885 1.48352C0.150559 1.85596 0 2.30763 0 2.77219Z" fill="#C5221F"/>
</g>
<defs>
<clipPath id="clip0_8699_2762">
<rect width="21" height="15.7502" fill="white" transform="translate(0 0.625)"/>
</clipPath>
</defs>
</svg>
