<svg width="17" height="17" viewBox="0 0 17 17" fill="none" xmlns="http://www.w3.org/2000/svg">
<g clip-path="url(#clip0_8699_2783)">
<path d="M12.7656 5.75462V3.75817C13.0294 3.63486 13.2528 3.43916 13.4097 3.19383C13.5666 2.94851 13.6507 2.66366 13.652 2.37244V2.32663C13.652 1.47754 12.9637 0.789207 12.1146 0.789207H12.0688C11.2197 0.789207 10.5313 1.47754 10.5313 2.32663V2.37244C10.5327 2.66366 10.6167 2.94851 10.7736 3.19383C10.9306 3.43916 11.154 3.63486 11.4178 3.75817V5.75462C10.6595 5.87074 9.94539 6.18516 9.34772 6.66603L3.87234 2.40127C3.91138 2.26032 3.93174 2.11539 3.93404 1.96992C3.93471 1.62728 3.83375 1.29214 3.64392 1.00689C3.4541 0.721645 3.18394 0.499103 2.86761 0.367416C2.55129 0.235728 2.20302 0.200813 1.86686 0.267085C1.53069 0.333358 1.22173 0.497841 0.979053 0.739729C0.736379 0.981617 0.570895 1.29004 0.503532 1.62599C0.43617 1.96194 0.469956 2.31033 0.600617 2.62707C0.731277 2.94382 0.952942 3.2147 1.23757 3.40545C1.5222 3.5962 1.85701 3.69825 2.19965 3.69869C2.4994 3.69728 2.79353 3.61726 3.05267 3.46661L8.44436 7.66216C7.4531 9.1596 7.47963 11.1112 8.51114 12.5812L6.87127 14.2216C6.73865 14.1792 6.60062 14.1567 6.46144 14.1548C5.67608 14.1555 5.03985 14.7924 5.04006 15.5777C5.04026 16.363 5.67689 16.9996 6.46219 16.9998C7.24754 17 7.88445 16.3638 7.88513 15.5784C7.88328 15.4393 7.86075 15.3012 7.81828 15.1686L9.44055 13.5458C10.8901 14.6616 12.8809 14.7578 14.4313 13.7868C15.9816 12.8157 16.7639 10.9824 16.3925 9.19127C16.021 7.40004 14.5742 6.02919 12.7656 5.75462ZM12.0931 12.3208C11.7934 12.3289 11.4951 12.2768 11.2159 12.1677C10.9366 12.0585 10.6821 11.8946 10.4672 11.6854C10.2524 11.4763 10.0817 11.2263 9.96506 10.95C9.84847 10.6738 9.7884 10.3771 9.7884 10.0772C9.7884 9.77742 9.84847 9.48065 9.96506 9.20443C10.0817 8.92822 10.2524 8.67816 10.4672 8.46903C10.6821 8.2599 10.9366 8.09593 11.2159 7.98681C11.4951 7.87769 11.7934 7.82562 12.0931 7.83368C13.3009 7.87597 14.2583 8.86703 14.259 10.0756C14.2595 11.2841 13.3031 12.2761 12.0954 12.3196" fill="#FF7A59"/>
</g>
<defs>
<clipPath id="clip0_8699_2783">
<rect width="17" height="17" fill="white"/>
</clipPath>
</defs>
</svg>
